<?xml version="1.0" standalone="no"?>
<!DOCTYPE svg PUBLIC "-//W3C//DTD SVG 20010904//EN"
 "http://www.w3.org/TR/2001/REC-SVG-20010904/DTD/svg10.dtd">
<svg version="1.0" xmlns="http://www.w3.org/2000/svg"
 width="600.000000pt" height="600.000000pt" viewBox="0 0 600.000000 600.000000"
 preserveAspectRatio="xMidYMid meet">
<metadata>
Created by potrace 1.14, written by Peter Selinger 2001-2017
</metadata>
<g transform="translate(0.000000,600.000000) scale(0.100000,-0.100000)"
fill="#000000" stroke="none">
<path d="M2695 5984 c-1232 -131 -2253 -992 -2584 -2179 -77 -277 -106 -498
-106 -805 0 -247 10 -357 51 -570 145 -744 569 -1411 1179 -1855 141 -103 263
-175 457 -270 301 -148 630 -245 964 -284 446 -52 931 4 1369 160 140 50 450
202 580 285 500 317 911 797 1141 1329 300 698 334 1442 98 2152 -311 935
-1058 1655 -2005 1931 -366 107 -776 145 -1144 106z m665 -239 c555 -84 1038
-322 1434 -705 244 -236 414 -466 561 -760 154 -308 226 -547 290 -965 10 -68
14 -525 5 -608 -40 -365 -139 -715 -282 -1000 -33 -67 -37 -81 -26 -95 11 -15
11 -15 -3 -4 -14 10 -21 4 -49 -50 -46 -86 -175 -276 -257 -378 -89 -111 -306
-328 -413 -413 -362 -288 -794 -479 -1220 -541 -173 -25 -198 -27 -375 -27
-196 0 -275 5 -435 32 -387 65 -789 236 -1100 470 -51 38 -97 66 -102 62 -6
-3 -8 -2 -5 4 4 6 -38 49 -92 97 -301 264 -564 642 -725 1043 -180 450 -243
956 -181 1453 38 301 143 648 277 913 16 32 26 63 22 69 -5 7 -2 8 6 3 10 -6
12 -4 7 9 -4 10 -3 15 3 11 5 -3 20 16 34 42 13 26 52 90 85 141 34 51 58 98
55 104 -4 6 -3 8 4 5 5 -4 27 16 49 45 136 188 373 424 568 565 171 124 382
243 557 313 31 13 54 28 51 33 -3 6 -1 7 5 3 7 -4 62 9 122 29 185 59 377 99
537 111 49 3 90 8 93 11 11 10 403 -7 500 -22z"/>
<path d="M2885 5559 c-409 -21 -805 -150 -1155 -377 -214 -139 -463 -370 -619
-575 -66 -86 -72 -99 -60 -114 13 -16 12 -17 -2 -5 -15 11 -21 6 -51 -40 -117
-178 -220 -394 -293 -611 -71 -214 -98 -343 -131 -632 -7 -64 -7 -384 1 -450
34 -309 71 -476 157 -709 208 -567 607 -1045 1113 -1334 241 -137 491 -228
773 -279 131 -23 172 -26 382 -27 237 0 348 10 520 49 460 106 882 347 1215
697 543 569 802 1377 700 2178 -60 470 -251 930 -541 1300 -91 116 -281 309
-389 397 -401 324 -916 522 -1389 532 -50 1 -92 3 -95 4 -4 2 -64 0 -136 -4z
m1201 -521 c4 -22 31 -56 84 -108 73 -70 111 -134 96 -158 -3 -5 -7 -19 -10
-33 -2 -13 -27 -116 -55 -229 -27 -113 -53 -221 -56 -240 -3 -19 -15 -71 -25
-115 -26 -110 -50 -215 -55 -245 -3 -14 -9 -47 -15 -75 -12 -58 -51 -253 -55
-275 -2 -8 -10 -49 -18 -90 -9 -41 -18 -93 -21 -114 -4 -21 -8 -48 -11 -60 -3
-12 -7 -32 -9 -46 -10 -60 -19 -110 -31 -175 -8 -38 -17 -92 -21 -120 -3 -27
-8 -59 -10 -70 -4 -20 -33 -201 -38 -240 -2 -11 -6 -33 -9 -50 -3 -16 -9 -54
-12 -84 -4 -30 -8 -61 -10 -70 -1 -9 -6 -38 -9 -66 -4 -27 -9 -61 -11 -75 -2
-14 -6 -56 -10 -93 -3 -37 -8 -76 -10 -86 -2 -10 -6 -42 -10 -71 -4 -29 -9
-62 -11 -74 -26 -139 -51 -203 -112 -294 -43 -63 -196 -212 -219 -212 -7 0
-13 -3 -13 -8 0 -17 -83 -42 -144 -42 -59 0 -74 5 -202 70 -77 38 -177 90
-224 116 -205 112 -471 250 -540 280 l-75 33 -11 -72 c-7 -40 -15 -106 -19
-147 -4 -41 -8 -88 -10 -105 -2 -16 -7 -77 -10 -135 -4 -58 -9 -113 -10 -122
-4 -19 -23 -292 -28 -411 -5 -89 -21 -121 -79 -150 -31 -15 -40 -16 -74 -5
-49 17 -70 53 -89 154 -25 129 -30 257 -30 779 0 492 10 734 40 985 2 19 9 82
15 140 56 547 192 1325 296 1700 62 222 118 337 198 408 73 64 231 95 290 57
64 -42 59 -135 -18 -366 -68 -201 -213 -785 -270 -1079 -79 -416 -129 -708
-151 -885 -3 -27 -13 -97 -20 -154 -8 -58 -15 -107 -15 -110 0 -2 75 69 168
160 92 91 235 227 317 304 83 76 213 197 290 269 77 72 147 137 157 144 31 24
74 31 103 16 20 -10 27 -10 29 -1 4 13 24 109 32 150 7 42 101 422 133 542 89
329 232 753 292 866 48 89 134 169 211 196 35 12 77 22 95 22 28 1 32 -3 39
-31z"/>
<path d="M3079 2927 c-189 -161 -299 -259 -576 -520 l-212 -199 97 -48 c95
-46 242 -127 469 -257 63 -35 118 -61 125 -57 6 4 8 3 4 -4 -3 -5 9 -20 28
-31 41 -26 52 -26 52 -3 1 33 19 214 29 292 7 53 14 111 20 155 3 22 8 58 10
80 19 148 60 421 80 535 33 178 35 190 32 189 -1 0 -72 -60 -158 -132z"/>
</g>
</svg>
